<svg xmlns="http://www.w3.org/2000/svg" width="371.935" height="366.997" viewBox="0 0 123.978 122.332"><g fill-rule="evenodd" stroke-linecap="round"><path fill="#ffd43b" d="m87.647 74.284 7.14 37.028L63.224 93.79l-34.278 15.347 5.882-37.582-22.819-21.514 33.613-7.826L61.95 9.905l14.428 34.882 38.389 3.37-29.581 24.551"/><path fill="none" stroke="#000" d="M86.935 72.742c2.548 10.081 3.35 18.634 7.704 39.587m-7.704-39.587c4.22 15.804 6.61 30.157 7.704 39.587m0 0c-8.138-4.938-17.943-11.663-33.277-20.358m33.277 20.358c-12.234-7.49-26.26-16.584-33.277-20.358m0 0c-10.469 5.936-24.646 13.713-33.383 17.254M61.362 91.97c-7.675 3.404-15.882 7.028-33.383 17.254m0 0c.06-13.55 2.422-26.646 6.668-37.442m-6.668 37.442c.962-12.357 4.624-24.385 6.668-37.442m0 0c-4.178-4.342-9.741-7.906-24.644-22.484m24.644 22.484c-6.026-5.239-11.427-9.23-24.644-22.484m0 0c14.384-2.725 24.598-3.688 36.139-6.649M10.003 49.3c7.972-.791 15.943-3.359 36.139-6.65m0 0c6.24-13.174 12.51-24.113 16.348-32.653M46.142 42.65c3.003-7.32 6.715-13.69 16.348-32.653m0 0c5.761 10.424 6.485 20.881 13.854 32.877M62.49 9.997c3.566 9.126 7.435 19.61 13.854 32.877m0 0c9.361 1.142 16.547 2.882 37.636 4.26m-37.636-4.26c14.573.822 29.368 3.652 37.636 4.26m0 0c-8.357 6.519-15.762 17.349-27.045 25.608m27.045-25.608c-8.35 6.92-15.63 13.14-27.045 25.608m0 0s0 0 0 0m0 0s0 0 0 0"/></g></svg>