<svg xmlns="http://www.w3.org/2000/svg" width="611" height="148" fill="none"><path fill="#3340F0" d="M123.101 46.38c2.144-11.564 13.094-19.198 24.417-17.008s18.797 13.373 16.653 24.937-13.094 19.198-24.417 17.008-18.797-13.373-16.653-24.937M62.737 86.347c-14.625-2.823-24.276-17.27-21.512-32.207 2.086-11.48-5.33-22.562-16.57-24.734C13.39 27.233 2.489 34.824.362 46.329c-2.127 11.48 5.339 22.604 16.57 24.81 14.585 2.858 24.16 17.313 21.396 32.225l-.107.592c-1.788 11.276 5.72 22.215 16.752 24.345 11.323 2.19 22.274-5.444 24.417-17.008s-5.33-22.748-16.653-24.937zm61.365 0c-14.625-2.823-24.276-17.27-21.511-32.207 2.085-11.48-5.339-22.562-16.58-24.734-11.264-2.173-22.165 5.418-24.292 16.923-2.127 11.48 5.339 22.604 16.57 24.81 14.585 2.858 24.161 17.313 21.396 32.225l-.107.592c-1.788 11.276 5.719 22.215 16.752 24.345 11.323 2.19 22.274-5.444 24.417-17.008s-5.33-22.748-16.653-24.937z"/><path fill="#000" d="M294.216 43.616 273.156 119h-17.82l-14.148-53.676L226.392 119l-17.712.108-20.304-75.492h16.2l13.284 58.536 15.336-58.536h16.848l14.472 58.212 13.392-58.212zm17.541 8.424q-3.996 0-6.696-2.484-2.592-2.592-2.592-6.372c0-3.78.864-4.608 2.592-6.264q2.7-2.592 6.696-2.592t6.588 2.592q2.7 2.484 2.7 6.264c0 3.78-.9 4.644-2.7 6.372q-2.592 2.484-6.588 2.484m7.452 7.128V119h-15.12V59.168zm28.762 47.412h26.676V119h-43.848v-12.204l26.136-35.208h-26.028v-12.42h43.416v12.204zm84.607-1.944h-30.024L397.586 119H381.71l27.108-75.492h17.604L453.53 119h-15.984zm-4.104-12.096-10.908-31.536-10.908 31.536zm50.309-24.732q2.916-4.104 7.992-6.804 5.184-2.808 11.772-2.808 7.668 0 13.824 3.78 6.264 3.78 9.828 10.8 3.672 6.912 3.672 16.092t-3.672 16.308q-3.564 7.02-9.828 10.908-6.156 3.888-13.824 3.888-6.588 0-11.664-2.7-4.968-2.7-8.1-6.804v37.044h-15.12V59.168h15.12zm31.644 21.06q0-5.4-2.268-9.288-2.16-3.996-5.832-6.048-3.564-2.052-7.776-2.052-4.104 0-7.776 2.16-3.564 2.052-5.832 6.048-2.16 3.996-2.16 9.396t2.16 9.396q2.268 3.996 5.832 6.156 3.672 2.052 7.776 2.052 4.212 0 7.776-2.16 3.672-2.16 5.832-6.156 2.268-3.996 2.268-9.504m41.551-21.06q2.916-4.104 7.992-6.804 5.184-2.808 11.772-2.808 7.668 0 13.824 3.78 6.264 3.78 9.828 10.8 3.672 6.912 3.672 16.092t-3.672 16.308q-3.564 7.02-9.828 10.908-6.156 3.888-13.824 3.888-6.588 0-11.664-2.7-4.968-2.7-8.1-6.804v37.044h-15.12V59.168h15.12zm31.644 21.06q0-5.4-2.268-9.288-2.16-3.996-5.832-6.048-3.564-2.052-7.776-2.052-4.104 0-7.776 2.16-3.564 2.052-5.832 6.048-2.16 3.996-2.16 9.396t2.16 9.396q2.268 3.996 5.832 6.156 3.672 2.052 7.776 2.052 4.212 0 7.776-2.16 3.672-2.16 5.832-6.156 2.268-3.996 2.268-9.504"/></svg>