<svg xmlns="http://www.w3.org/2000/svg" width="93" height="93" fill="none"><rect width="92.046" height="92.046" fill="#fff" rx="14.727"/><path fill="#3340FA" d="M61.892 20.036a1.875 1.875 0 0 1 2.573-.644L63.5 21l.965-1.608.003.003.004.002.01.006.023.014.07.044q.082.053.215.146c.176.123.413.3.692.531a13.3 13.3 0 0 1 2.004 2.094c1.457 1.894 2.889 4.787 2.889 8.768s-1.432 6.874-2.889 8.769c-.723.94-1.45 1.63-2.004 2.094a11 11 0 0 1-.908.676l-.037.025-.032.02-.024.014-.009.006-.004.002s-.003.002-.968-1.606l.965 1.608a1.875 1.875 0 0 1-1.94-3.209l.013-.009a7 7 0 0 0 .543-.409 9.5 9.5 0 0 0 1.433-1.499c1.043-1.356 2.111-3.463 2.111-6.482 0-3.018-1.068-5.126-2.111-6.482a9.5 9.5 0 0 0-1.433-1.5 7 7 0 0 0-.543-.408l-.014-.009a1.875 1.875 0 0 1-.632-2.565M41 41c5.523 0 10-4.477 10-10s-4.477-10-10-10-10 4.477-10 10 4.477 10 10 10M21 59.75C21 65.963 21 71 41 71s20-5.037 20-11.25S52.046 48.5 41 48.5s-20 5.037-20 11.25"/><path fill="#3340FA" d="M59.465 24.392a1.875 1.875 0 0 0-2.573.644l.62 2.558.02.014q.047.03.158.122c.148.123.36.322.574.601.418.543.861 1.4.861 2.67 0 1.268-.443 2.125-.861 2.669a3.8 3.8 0 0 1-.574.6 2 2 0 0 1-.158.123l-.02.013a1.875 1.875 0 0 0 1.953 3.202L58.5 36c.965 1.608.964 1.609.965 1.608l.003-.002.004-.002.008-.005.018-.011.048-.03.137-.093c.107-.075.247-.18.408-.313a7.7 7.7 0 0 0 1.145-1.196c.832-1.082 1.639-2.724 1.639-4.956 0-2.231-.807-3.874-1.639-4.955a7.6 7.6 0 0 0-1.145-1.196 6 6 0 0 0-.545-.405l-.048-.031-.018-.012-.008-.004-.004-.002c0-.001-.003-.003-.968 1.605z"/></svg>