<svg width="40" height="24" viewBox="0 0 40 24" fill="none" xmlns="http://www.w3.org/2000/svg">
<path d="M29.9273 4.18587C30.4485 1.40028 33.111 -0.437028 35.8625 0.0902523C38.6159 0.617532 40.432 3.31116 39.9108 6.09675C39.3896 8.88234 36.7271 10.7196 33.9757 10.1924C31.2222 9.66508 29.4061 6.97146 29.9273 4.18791V4.18587Z" fill="#3340E7"/>
<path d="M15.2531 13.8118C11.6977 13.1312 9.35231 9.65282 10.025 6.05587C10.53 3.29072 8.72607 0.62162 5.99284 0.0984273C3.25355 -0.424765 0.605159 1.40232 0.0880061 4.17361C-0.429146 6.93876 1.38695 9.61604 4.11614 10.1474C7.66146 10.8361 9.98865 14.3166 9.31797 17.9074L9.29171 18.0484C8.85536 20.7645 10.6836 23.3968 13.3643 23.9098C16.1177 24.4371 18.7802 22.5977 19.3014 19.8142C19.8226 17.0307 18.0065 14.337 15.2531 13.8098V13.8118Z" fill="#3340E7"/>
<path d="M30.1697 13.8118C26.6143 13.1312 24.2689 9.65282 24.9416 6.05587C25.4487 3.29276 23.6447 0.62162 20.9115 0.0984273C18.1722 -0.424765 15.5238 1.40232 15.0066 4.17361C14.4895 6.93876 16.3056 9.61604 19.0348 10.1474C22.5801 10.8361 24.9073 14.3166 24.2366 17.9074L24.2103 18.0484C23.774 20.7645 25.6022 23.3968 28.2829 23.9098C31.0364 24.4371 33.6989 22.5977 34.2201 19.8142C34.7413 17.0307 32.9252 14.337 30.1717 13.8098L30.1697 13.8118Z" fill="#3340E7"/>
</svg>
