<svg xmlns="http://www.w3.org/2000/svg" width="93" height="93" fill="none"><rect width="92.046" height="92.046" fill="#fff" rx="14.727"/><path fill="#3340FA" d="M49.914 26.23a9.73 9.73 0 0 1 1.746 5.602 9.88 9.88 0 0 1-6.574 9.316v-3.082a6.3 6.3 0 0 0 1.582-1.195c2.684-2.672 2.684-7.043 0-9.738-2.672-2.684-7.043-2.684-9.738 0-2.684 2.672-2.684 7.043 0 9.726.492.48 1.054.891 1.64 1.207v3.07a9.7 9.7 0 0 1-2.379-1.218 1.8 1.8 0 0 0 .141-.703 1.923 1.923 0 0 0-2.648-1.781 9.77 9.77 0 0 1-1.758-5.614c0-5.437 4.418-9.867 9.867-9.867 2.027 0 3.96.61 5.625 1.758-.094.223-.152.48-.152.738 0 1.055.855 1.922 1.922 1.922.257.012.503-.047.726-.14Zm.047-1.78a.8.8 0 0 1-.234.55c-.012 0-.012.012-.012.012-.024.011-.047.035-.059.047a.74.74 0 0 1-.468.164.78.78 0 0 1-.774-.774.8.8 0 0 1 .176-.492.75.75 0 0 1 .597-.281.78.78 0 0 1 .774.773ZM35.184 39.214c0 .2-.082.387-.211.527a.773.773 0 1 1-1.113-1.066s.011 0 .011-.012c.023-.023.047-.035.07-.059a.74.74 0 0 1 .47-.164c.433 0 .773.352.773.774M45.859 27.94c2.239 2.25 2.239 5.895 0 8.133a5 5 0 0 1-.773.657v-.962a3.266 3.266 0 0 0-3.258-3.257 3.266 3.266 0 0 0-3.258 3.258v.972a5.736 5.736 0 0 1-.832-8.8 5.75 5.75 0 0 1 8.121 0Zm14.625 20.25c0 .047.586 4.688-.468 9.645-1.383 6.527-4.805 10.5-10.172 11.812-.024.012-.035.012-.059.024-.012 0-1.722.597-4.09.27-3.164-.434-5.965-2.239-8.308-5.356-1.09-1.43-1.992-3.117-2.696-4.992l-3.199-8.602a2 2 0 0 1-.14-.726 2.093 2.093 0 0 1 2.085-2.098c.774 0 1.524.445 1.91 1.207l3.317 6.95a.575.575 0 0 0 .645.316.58.58 0 0 0 .445-.563l-.012-14.156v-6.153c0-1.16.95-2.109 2.11-2.109s2.109.95 2.109 2.11v1.77a.64.64 0 0 0 0 .362v3.82a.55.55 0 0 0-.023.364.2.2 0 0 0 .023.07v5.965a.575.575 0 0 0 1.148 0c0-.586.223-1.137.633-1.547.399-.41.961-.644 1.535-.644 1.207 0 2.192.984 2.192 2.191a.575.575 0 0 0 1.148 0c0-.586.223-1.137.633-1.547.398-.41.96-.644 1.535-.644 1.207 0 2.192.984 2.192 2.191a.575.575 0 0 0 1.148 0c0-.586.223-1.137.633-1.547a2.1 2.1 0 0 1 1.535-.644c1.207 0 2.191.984 2.191 2.191z"/></svg>