<svg xmlns="http://www.w3.org/2000/svg" width="654.971" height="540.989" viewBox="0 0 218.324 180.33"><g fill-rule="evenodd" stroke-linecap="round"><path fill="#f8f6f1" d="M10.116 170.939c2.45-10.46 6.16-48.47 14.35-64.49 8.2-16.02 22.42-30.97 34.85-31.63 12.42-.66 30.48 13.41 39.69 27.66 9.21 14.26 30.27 46.8 15.58 57.87-14.68 11.08-86.49 6.85-103.68 8.59"/><path fill="none" stroke="#000" d="M11.496 167.749c2.11-10.25 4.33-45.74 12.67-60.98 8.33-15.25 24.63-29.52 37.32-30.5 12.7-.97 29.94 10.15 38.85 24.64s29.57 50.89 14.62 62.32c-14.96 11.43-87.28 5.41-104.34 6.28m-.62.37c2.04-10.04 5.25-45.79 13.69-61.74 8.44-15.94 24.1-32.33 36.94-33.91 12.84-1.59 30.75 10.04 40.08 24.41s30.77 50.11 15.9 61.81c-14.86 11.71-87.32 7.37-105.08 8.45"/></g><g stroke-linecap="round"><path fill="#ffd43b" d="M78.293 29.031c5.21 1.69 10.34 7 12.45 11.83 2.12 4.83 2.24 12.27.24 17.17-2 4.89-7.27 9.69-12.24 12.2s-11.88 3.61-17.59 2.86c-5.72-.76-12.9-3.92-16.72-7.4s-6.16-8.71-6.2-13.5c-.05-4.78 2.54-11.22 5.94-15.22 3.41-3.99 8.05-7.93 14.47-8.76s19.74 2.4 24.05 3.8c4.31 1.39 2.18 4.21 1.82 4.56m-28.67-9.25c5.23-2.16 12.95-.6 18.45 1.32 5.51 1.92 11.69 5.99 14.56 10.2 2.86 4.21 3.51 10.23 2.63 15.03-.89 4.81-3.65 10.63-7.93 13.81-4.28 3.17-12.1 5.3-17.75 5.24-5.66-.05-11.82-2.64-16.2-5.58-4.39-2.94-8.95-7.14-10.13-12.05-1.19-4.92.36-12.92 3.02-17.44 2.67-4.52 10.95-8.03 12.99-9.67 2.03-1.64-.88-.88-.79-.17"/><path fill="none" stroke="#000" d="M63.383 26.461c5.45-.84 13.25 1.14 17.95 4.33 4.7 3.18 8.99 9.94 10.25 14.8 1.27 4.86-.12 10.08-2.67 14.37-2.54 4.29-7.58 9.06-12.6 11.34s-11.92 3.75-17.51 2.35c-5.6-1.41-12.61-6.47-16.07-10.76-3.46-4.28-5.42-10.04-4.68-14.96.73-4.92 4.46-11.07 9.1-14.56 4.65-3.48 14.89-5.49 18.78-6.36 3.88-.88 4.29.54 4.54 1.12m5.06.48c5.35 2 11.8 8.8 14.52 13.26s3.6 9.07 1.81 13.47c-1.79 4.41-7.67 9.83-12.52 12.94s-10.9 6.08-16.59 5.72c-5.68-.37-13.41-4.18-17.54-7.93-4.12-3.74-6.87-9.8-7.2-14.56-.34-4.75 1.67-10.16 5.19-13.94 3.53-3.78 10.36-7.5 15.95-8.72 5.59-1.23 14.67.98 17.6 1.37 2.92.39.08.56-.04.99"/></g><path fill="none" stroke="#3340fa" stroke-linecap="round" stroke-width="4" d="M118.706 38.669c1.09 1.54 5.89 5.46 7.04 8.89 1.16 3.43 1.13 8.03-.11 11.69-1.23 3.67-6.23 8.67-7.3 10.3m-.33-31.23c.99 1.4 5.91 5.05 7.37 8.4 1.45 3.35 2.53 8.05 1.34 11.69s-7.17 8.38-8.49 10.17m18.649-39.063c1.78 2.43 8.62 9.05 10.5 14.58s2.48 12.78.78 18.59-9 13.5-10.98 16.25m-.91-49.76c1.96 2.26 9.94 8.74 12.1 14.18 2.17 5.44 2.69 12.45.89 18.46-1.81 6-9.71 14.63-11.73 17.56m22.913-58.965c2.37 3.39 12.41 12.48 15.49 19.95s5.57 16.75 3 24.88c-2.57 8.12-15.37 19.76-18.41 23.88m1.58-69.25c2.73 3 13.28 11.04 16.04 18.8 2.77 7.76 3.51 19.13.54 27.74-2.97 8.62-15.67 20.47-18.37 23.95m22.632-79.745c3.62 4.07 18.15 14.84 21.68 24.56s3.07 23.01-.51 33.76c-3.59 10.74-17.72 25.84-21.01 30.72m1.54-89.66c3.64 4.18 15.91 16.51 19.56 26.58 3.65 10.06 5.88 23.63 2.34 33.81-3.53 10.19-19.68 22.62-23.56 27.3"/></svg>