<svg xmlns="http://www.w3.org/2000/svg" width="93" height="93" fill="none"><rect width="91.046" height="91.046" x=".5" y=".5" fill="#fff" rx="14.227"/><rect width="91.046" height="91.046" x=".5" y=".5" stroke="#3340FA" rx="14.227"/><path fill="#3340FA" d="M31.65 69.471H31c-2.357 0-3.535 0-4.268-.732C26 68.006 26 66.828 26 64.47v-2.78c0-1.296 0-1.944.333-2.523s.835-.871 1.84-1.455c6.613-3.847 16.006-6.012 22.275-2.273.42.251.8.554 1.123.918 1.396 1.567 1.294 3.932-.314 5.336-.34.296-.702.52-1.066.599q.45-.053.86-.118c2.279-.364 4.192-1.581 5.943-2.904l4.517-3.413c1.593-1.203 3.957-1.203 5.55 0 1.434 1.083 1.873 2.866.966 4.319-1.057 1.695-2.547 3.863-3.977 5.188-1.433 1.327-3.565 2.511-5.306 3.351-1.929.931-4.06 1.468-6.227 1.818a37.1 37.1 0 0 1-13.326-.293 37.6 37.6 0 0 0-7.541-.77Zm11.503-45.063C44.42 22.136 45.053 21 46 21s1.58 1.136 2.847 3.408l.328.588c.36.646.54.969.82 1.182s.63.292 1.33.45l.636.144c2.46.557 3.689.835 3.982 1.776.292.94-.546 1.921-2.223 3.882l-.434.507c-.476.557-.715.836-.822 1.18-.107.345-.071.717.001 1.46l.066.677c.253 2.617.38 3.925-.386 4.506s-1.918.052-4.22-1.009l-.596-.274c-.655-.301-.982-.452-1.329-.452s-.674.15-1.328.452l-.596.274c-2.303 1.06-3.455 1.59-4.22 1.01-.767-.582-.64-1.89-.387-4.507l.066-.676c.072-.744.108-1.116 0-1.46-.106-.345-.345-.624-.821-1.18l-.434-.508c-1.677-1.96-2.515-2.941-2.223-3.882s1.523-1.22 3.982-1.776l.637-.144c.699-.158 1.048-.237 1.329-.45s.46-.536.82-1.182zm21.424 10.796c.633-1.136.95-1.704 1.423-1.704s.79.568 1.423 1.704l.164.294c.18.323.27.484.41.59.14.107.316.147.665.226l.318.072c1.23.278 1.845.417 1.991.888.147.47-.273.96-1.111 1.941l-.217.254c-.238.278-.357.417-.41.59-.055.172-.037.358 0 .73l.032.338c.127 1.308.19 1.962-.193 2.253-.383.29-.958.026-2.11-.504l-.298-.138c-.327-.15-.49-.226-.664-.226-.173 0-.337.076-.664.226l-.298.138c-1.152.53-1.727.795-2.11.504-.383-.29-.32-.945-.193-2.253l.032-.338c.036-.372.054-.558 0-.73-.053-.172-.172-.312-.41-.59l-.217-.254c-.838-.98-1.258-1.47-1.111-1.941.146-.47.76-.61 1.99-.888l.319-.072c.35-.079.524-.119.664-.225s.23-.268.41-.59zm-40 0c.633-1.136.95-1.704 1.423-1.704s.79.568 1.423 1.704l.164.294c.18.323.27.484.41.59.14.107.316.147.665.226l.318.072c1.23.278 1.845.417 1.991.888.147.47-.273.96-1.111 1.941l-.217.254c-.238.278-.357.417-.41.59-.055.172-.037.358 0 .73l.032.338c.127 1.308.19 1.962-.193 2.253-.383.29-.958.026-2.11-.504l-.298-.138c-.327-.15-.49-.226-.664-.226-.173 0-.337.076-.664.226l-.298.138c-1.152.53-1.727.795-2.11.504-.383-.29-.32-.945-.193-2.253l.032-.338c.037-.372.055-.558 0-.73-.053-.172-.172-.312-.41-.59l-.217-.254c-.838-.98-1.258-1.47-1.111-1.941.146-.47.76-.61 1.99-.888l.319-.072c.35-.079.524-.119.665-.225.14-.107.23-.268.41-.59z"/></svg>