<svg xmlns="http://www.w3.org/2000/svg" width="95" height="92" fill="none"><rect width="94" height="91" x=".5" y=".5" fill="#fff" rx="14.227"/><rect width="94" height="91" x=".5" y=".5" stroke="#3340FA" rx="14.227"/><path fill="#3340FA" d="M56.75 34.75a8.75 8.75 0 1 1-17.5 0 8.75 8.75 0 0 1 17.5 0M63 57.25C63 62.083 56.284 66 48 66s-15-3.917-15-8.75 6.716-8.75 15-8.75 15 3.917 15 8.75M35.805 28.5q.667.002 1.295.126a12.44 12.44 0 0 0-1.6 6.124c0 2.17.553 4.212 1.526 5.99a6.7 6.7 0 0 1-1.22.113c-3.537 0-6.403-2.765-6.403-6.176s2.866-6.177 6.402-6.177m-4.187 34.965c-1.42-1.697-2.368-3.78-2.368-6.215 0-2.36.891-4.39 2.24-6.058-4.762.37-8.49 2.974-8.49 6.132 0 3.187 3.793 5.81 8.618 6.14ZM60.499 34.75c0 2.17-.554 4.212-1.527 5.99a6.7 6.7 0 0 0 1.221.113c3.537 0 6.403-2.765 6.403-6.176S63.729 28.5 60.193 28.5q-.665.002-1.295.126a12.44 12.44 0 0 1 1.6 6.124Zm3.881 28.715c4.825-.33 8.62-2.955 8.62-6.142 0-3.157-3.728-5.762-8.49-6.131 1.348 1.668 2.24 3.697 2.24 6.058 0 2.435-.949 4.518-2.369 6.215Z"/></svg>