<svg xmlns="http://www.w3.org/2000/svg" width="311.517" height="348.493" viewBox="0 0 103.839 116.164"><g fill-rule="evenodd" stroke-linecap="round"><path fill="#ffd43b" d="M69.473 90.806c2.44-1.695 11.872-1.905 12.544-6.98.666-5.06-6.494-12.638-8.54-23.396-2.037-10.762 1.122-32.405-3.704-41.176-4.822-8.762-16.028-13.12-25.216-11.423C35.37 9.528 19.7 19.947 14.647 29.436c-5.056 9.48-6.77 27.63-.43 35.295s29.729 5.687 38.449 10.702c8.725 5.002 11.4 16.348 13.882 19.338"/><path fill="none" stroke="#000" d="M69.015 92.423c2.733-1.92 13.512-5.456 14.474-10.733.963-5.276-6.583-11.062-8.67-20.917-2.091-9.864.98-29.854-3.864-38.24C66.123 14.15 55.02 9.234 45.79 10.487c-9.221 1.249-24.999 10.637-30.175 19.555-5.167 8.913-7.31 26.38-.839 33.928 6.473 7.548 30.685 6.62 39.681 11.352 8.996 4.73 12.144 14.023 14.294 17.057m-.88-.206c2.522-2.23 12.991-6.637 14.152-11.608 1.165-4.963-5.16-8.261-7.179-18.204-2.021-9.952-.424-32.807-4.913-41.471-4.493-8.673-12.62-12.044-22.026-10.554-9.41 1.503-29.05 10.26-34.423 19.512-5.36 9.257-4.464 28.405 2.212 36.034 6.685 7.624 29.294 5.372 37.861 9.707 8.577 4.332 11.227 13.338 13.576 16.301"/></g><g fill-rule="evenodd" stroke-linecap="round"><path fill="#fff" d="m69.547 91.954 11.622 15.18 11.772-12.98L82.35 82.777l-11.36 9.727"/><path fill="none" stroke="#000" d="M70.563 91.744c4.736 5.257 7.888 10.34 10.508 14.42m-10.508-14.42c4.404 5.611 7.943 11.669 10.508 14.42m0 0c3.923-4.464 8.321-8.093 12.768-11.646M81.07 106.165c4.472-3.606 8.941-8.312 12.768-11.647m0 0c-3.66-2.906-6.83-7.03-11.316-11.97m11.316 11.97c-3.55-3.215-6.842-7.104-11.316-11.97m0 0c-4.076 3.185-8.874 6.69-11.96 9.196m11.96-9.197c-3.015 2.152-6.33 5.006-11.96 9.197m0 0s0 0 0 0m0 0s0 0 0 0"/></g><g fill-rule="evenodd" stroke-linecap="round"><path fill="#fff" d="m70.496 85.964-18.54-22.53 7.83-16.31 16.67 35.43"/><path fill="none" stroke="#000" d="M71.346 85.174c-5.73-7.81-10.81-14.46-18.6-22.43m18.6 22.43c-7.24-8.22-13.36-15.96-18.6-22.43m0 0c2.85-6 4.98-10.49 6.22-15.39m-6.22 15.39c1.63-4.35 3.38-8.86 6.22-15.39m0 0c4.58 9.09 10.2 19.22 18.22 34.98m-18.22-34.98c4.94 10.19 10.61 19.7 18.22 34.98m0 0c-1.67.7-3.05 1.41-5.84 2.84m5.84-2.84c-1.32.7-2.56 1.33-5.84 2.84"/></g></svg>